<svg enable-background="new 0 0 76.00 76.00" height="76" viewBox="0 0 76 76" width="76" xmlns="http://www.w3.org/2000/svg"><path d="m43.5 21.0285 5.1842 4.3655 1.6847-.4712c-1.9351-1.8308-4.2763-3.2369-6.8743-4.0688zm10.1014 18.303-1.03 6.197 1.2844.999c1.3652-2.5331 2.1411-5.4307 2.1442-8.5093zm-9.78 9.4281-5.4343-3.8656-6.2143 2.3315-1.5301 6.447 1.9166 1.4906c1.7165.5437 3.5443.8369 5.4407.8369 1.7036 0 3.3519-.2367 4.9138-.6789zm-14.2801 4.697 1.5301-6.447-5.6843-4.3656-4.2974 1.538c1.469 4.0174 4.3289 7.3649 7.9966 9.4595zm-4-11.894.7801-7.447-4.766-3.446c-.9997 2.2391-1.5554 4.7198-1.5554 7.3304 0 1.8384.2756 3.6124.7877 5.2829zm1.4643-7.9186 6.2144-2.5815 1.28-6.6969-3.7724-2.836c-3.8307 1.6939-6.9596 4.685-8.8296 8.4164zm24.7143 11.5626 1.03-6.197-5.9342-4.6156-6.4643 2.3315-1.03 7.447 5.4342 3.8655zm-5.25-11.75 1.03-7.447-5.1842-4.3655-6.9643 2.8314-1.28 6.697 5.9342 4.6155zm-8.4699-15.4566c11.0457 0 20 8.9543 20 20s-8.9543 20-20 20-20-8.9543-20-20 8.9543-20 20-20z" stroke-linejoin="round" stroke-width=".2"/></svg>